<mxfile host="65bd71144e">
    <diagram id="A2wzsypNPWKvOmjDUm_0" name="ページ1">
        <mxGraphModel dx="832" dy="472" grid="1" gridSize="10" guides="1" tooltips="1" connect="1" arrows="1" fold="1" page="1" pageScale="1" pageWidth="827" pageHeight="1169" background="#FFFFFF" math="0" shadow="0">
            <root>
                <mxCell id="0"/>
                <mxCell id="1" parent="0"/>
                <mxCell id="2" value="" style="ellipse;shape=cloud;whiteSpace=wrap;html=1;fillColor=#4D4D4D;" parent="1" vertex="1">
                    <mxGeometry x="10" width="420" height="310" as="geometry"/>
                </mxCell>
                <mxCell id="3" value="" style="image;html=1;image=img/lib/clip_art/networking/Print_Server_128x128.png;fontColor=#FFFFFF;" parent="1" vertex="1">
                    <mxGeometry x="80" y="90" width="80" height="80" as="geometry"/>
                </mxCell>
                <mxCell id="4" value="" style="image;html=1;image=img/lib/clip_art/networking/Print_Server_128x128.png;fontColor=#FFFFFF;" parent="1" vertex="1">
                    <mxGeometry x="270" y="110" width="80" height="80" as="geometry"/>
                </mxCell>
                <mxCell id="5" value="" style="image;html=1;image=img/lib/clip_art/networking/Print_Server_128x128.png;fontColor=#FFFFFF;" parent="1" vertex="1">
                    <mxGeometry x="180" y="180" width="80" height="80" as="geometry"/>
                </mxCell>
                <mxCell id="10" value="" style="ellipse;shape=cloud;whiteSpace=wrap;html=1;fontColor=#FFFFFF;fillColor=#4D4D4D;" parent="1" vertex="1">
                    <mxGeometry x="400" y="150" width="420" height="310" as="geometry"/>
                </mxCell>
                <mxCell id="11" value="" style="image;html=1;image=img/lib/clip_art/networking/Print_Server_128x128.png;fontColor=#FFFFFF;" parent="1" vertex="1">
                    <mxGeometry x="490" y="250" width="80" height="80" as="geometry"/>
                </mxCell>
                <mxCell id="12" value="" style="image;html=1;image=img/lib/clip_art/networking/Print_Server_128x128.png;fontColor=#FFFFFF;" parent="1" vertex="1">
                    <mxGeometry x="680" y="260" width="80" height="80" as="geometry"/>
                </mxCell>
                <mxCell id="13" value="" style="image;html=1;image=img/lib/clip_art/networking/Print_Server_128x128.png;fontColor=#FFFFFF;" parent="1" vertex="1">
                    <mxGeometry x="570" y="330" width="80" height="80" as="geometry"/>
                </mxCell>
                <mxCell id="14" value="&lt;font&gt;単一の公開鍵&lt;/font&gt;" style="sketch=0;pointerEvents=1;shadow=0;dashed=0;html=1;strokeColor=none;labelPosition=center;verticalLabelPosition=bottom;verticalAlign=top;outlineConnect=0;align=center;shape=mxgraph.office.security.key_permissions;fillColor=#2072B8;fontColor=#FFFFFF;" parent="1" vertex="1">
                    <mxGeometry x="207.5" y="58" width="25" height="53" as="geometry"/>
                </mxCell>
                <mxCell id="15" value="&lt;font&gt;単一の公開鍵&lt;/font&gt;" style="sketch=0;pointerEvents=1;shadow=0;dashed=0;html=1;strokeColor=none;labelPosition=center;verticalLabelPosition=bottom;verticalAlign=top;outlineConnect=0;align=center;shape=mxgraph.office.security.key_permissions;fillColor=#2072B8;fontColor=#FFFFFF;" parent="1" vertex="1">
                    <mxGeometry x="620" y="220" width="25" height="53" as="geometry"/>
                </mxCell>
                <mxCell id="17" value="&lt;font&gt;秘密鍵の一部&lt;/font&gt;" style="strokeWidth=2;html=1;shape=mxgraph.flowchart.start_2;whiteSpace=wrap;fillColor=#a20025;fontColor=#FFFFFF;strokeColor=#6F0000;" parent="1" vertex="1">
                    <mxGeometry x="90" y="120" width="50" height="50" as="geometry"/>
                </mxCell>
                <mxCell id="18" value="&lt;font&gt;秘密鍵の一部&lt;/font&gt;" style="strokeWidth=2;html=1;shape=mxgraph.flowchart.start_2;whiteSpace=wrap;fillColor=#a20025;fontColor=#FFFFFF;strokeColor=#6F0000;" parent="1" vertex="1">
                    <mxGeometry x="711" y="242" width="50" height="50" as="geometry"/>
                </mxCell>
                <mxCell id="20" value="&lt;font style=&quot;&quot;&gt;秘密鍵の一部&lt;/font&gt;" style="triangle;whiteSpace=wrap;html=1;fillColor=#60a917;fontColor=#FFFFFF;strokeColor=#2D7600;" parent="1" vertex="1">
                    <mxGeometry x="230" y="210" width="40" height="60" as="geometry"/>
                </mxCell>
                <mxCell id="21" value="&lt;font&gt;秘密鍵の一部&lt;/font&gt;" style="triangle;whiteSpace=wrap;html=1;fillColor=#60a917;fontColor=#FFFFFF;strokeColor=#2D7600;" parent="1" vertex="1">
                    <mxGeometry x="480" y="250" width="40" height="60" as="geometry"/>
                </mxCell>
                <mxCell id="22" value="&lt;font&gt;秘密鍵の一部&lt;/font&gt;" style="whiteSpace=wrap;html=1;aspect=fixed;fillColor=#0050ef;fontColor=#FFFFFF;strokeColor=#001DBC;" parent="1" vertex="1">
                    <mxGeometry x="326" y="121" width="40" height="40" as="geometry"/>
                </mxCell>
                <mxCell id="23" value="&lt;font&gt;秘密鍵の一部&lt;/font&gt;" style="whiteSpace=wrap;html=1;aspect=fixed;fillColor=#0050ef;fontColor=#FFFFFF;strokeColor=#001DBC;" parent="1" vertex="1">
                    <mxGeometry x="580" y="370" width="40" height="40" as="geometry"/>
                </mxCell>
            </root>
        </mxGraphModel>
    </diagram>
</mxfile>
